# xmcd
#
# Track frame offsets:
#	150
#	19285
#	32803
#	44424
#	55350
#	67058
#	79246
#	92158
#	107351
#	120365
#	139018
#	152655
#	165946
#	177109
#	194982
#
# Disc length: 2891 seconds
# Revision: 0
# Processed by: cddbd v1.4PL0 Copyright (c) Steve Scherf et al.
# Submitted via: cdrLabel 6.0
#
DISCID=c90b490f
DTITLE=Red Hot 'N' Blue - Ain't Gonna Stop
DYEAR=1900
DGENRE=
TTITLE0=Going Away
TTITLE1=Funny Kind Of Feeling
TTITLE2=My Brand Of Blues
TTITLE3=Uptown Cat
TTITLE4=Blues Stop Knocking
TTITLE5=I Wanna Go Back
TTITLE6=You're The One
TTITLE7=Find Out What's Happening
TTITLE8=One Thing I Ain't Got
TTITLE9=Every Saturday Night
TTITLE10=Caroline
TTITLE11=Ain't Gonna Stop
TTITLE12=You're The One #2
TTITLE13=My Babe
TTITLE14=Sure Like The Look In Your Eyes
EXTD=
EXTT0=
EXTT1=
EXTT2=
EXTT3=
EXTT4=
EXTT5=
EXTT6=
EXTT7=
EXTT8=
EXTT9=
EXTT10=
EXTT11=
EXTT12=
EXTT13=
EXTT14=
PLAYORDER=
